<svg width="80" height="70" viewBox="0 0 80 70" fill="none" xmlns="http://www.w3.org/2000/svg">
<path d="M37.7538 5.59997C35.2307 6.37497 33.2923 8.22497 31.2307 11.825C29.723 14.475 29.4461 15.55 29.4154 18.75C29.3846 22.175 29.9384 23.825 32.4615 28.2L34.123 31.025L29.3846 38.925C26.7692 43.275 24.6154 46.975 24.6154 47.2C24.6154 47.5 29.9077 56.075 30.3384 56.475C30.3692 56.525 32.5846 53.05 35.2307 48.75C37.8769 44.45 40.0923 40.975 40.1538 41.05C40.2154 41.1 42.4 44.6 45.0154 48.85L49.7538 56.6L51.7846 53.475C52.8923 51.775 54.2461 49.65 54.7692 48.75L55.7538 47.125L50.923 39.125L46.123 31.125L47.1077 29.375C50.2769 23.725 50.7692 22.275 50.7692 18.525C50.7384 15.45 50.4615 14.45 48.6461 11.325C47.1077 8.74997 45.3538 6.92497 43.5384 5.99997C42.2154 5.34997 39.2923 5.12497 37.7538 5.59997ZM42.6154 10.6C44.8307 11.075 45.5384 11.425 45.323 11.95C44.7692 13.35 40.1538 20.975 39.9692 20.825C39.6923 20.55 35.2 12.775 34.9538 12.075C34.7692 11.625 34.923 11.45 35.6923 11.125C37.6615 10.3 40.3077 10.1 42.6154 10.6Z" fill="black"/>
</svg>
